<svg xmlns="http://www.w3.org/2000/svg" viewBox="0 0 40 40">
  <polygon points="33.94 29.26 26.24 18.47 32.51 10.91 36.58 6 30.2 6 26.67 6 25.27 6 24.37 7.08 20.98 11.13 18.21 7.26 17.32 6 15.77 6 8.5 6 2.64 6 6.07 10.75 13.38 20.9 6.64 29.1 2.61 34 8.96 34 12.49 34 13.9 34 14.8 32.91 18.69 28.21 21.97 32.76 22.87 34 24.4 34 31.5 34 37.33 34 33.94 29.26" fill="#1f2e3d"/>
  <path d="M24.4,31h7.1l-9.04-12.66,7.74-9.34h-3.53l-5.88,7.03-5.02-7.03h-7.27l8.66,12.01-8.2,9.99h3.53l6.36-7.7,5.56,7.7ZM12.65,11.11h2.1l12.65,17.7h-1.95L12.65,11.11Z" fill="#fff"/>
</svg>